<?xml version="1.0" encoding="UTF-8" standalone="no"?>
<!-- Created with Inkscape (http://www.inkscape.org/) -->

<svg
   width="210mm"
   height="297mm"
   viewBox="0 0 210 297"
   version="1.1"
   id="svg1"
   xml:space="preserve"
   sodipodi:docname="golden-head-softwares.2.0.svg"
   inkscape:version="1.4.3 (0d15f75, 2025-12-25)"
   xmlns:inkscape="http://www.inkscape.org/namespaces/inkscape"
   xmlns:sodipodi="http://sodipodi.sourceforge.net/DTD/sodipodi-0.dtd"
   xmlns="http://www.w3.org/2000/svg"
   xmlns:svg="http://www.w3.org/2000/svg"><sodipodi:namedview
     id="namedview1"
     pagecolor="#ffffff"
     bordercolor="#000000"
     borderopacity="0.25"
     inkscape:showpageshadow="2"
     inkscape:pageopacity="0.0"
     inkscape:pagecheckerboard="0"
     inkscape:deskcolor="#d1d1d1"
     inkscape:document-units="mm"
     inkscape:zoom="0.71891835"
     inkscape:cx="396.42889"
     inkscape:cy="447.1996"
     inkscape:window-width="1920"
     inkscape:window-height="1009"
     inkscape:window-x="-8"
     inkscape:window-y="-8"
     inkscape:window-maximized="1"
     inkscape:current-layer="svg1" /><defs
     id="defs1" /><g
     id="layer1"
     style="display:inline;fill:#000000;fill-opacity:1"
     inkscape:label="Fundo"><rect
       style="fill:#000000;stroke-width:0.264583;fill-opacity:1"
       id="rect2"
       width="209.61234"
       height="296.99997"
       x="0"
       y="0" /></g><g
     id="layer2"
     style="display:inline"
     inkscape:label="Cabeça"><ellipse
       style="display:inline;fill:#ffcc00;stroke-width:0.264583"
       id="path11"
       cx="109.8068"
       cy="115.65202"
       rx="74.317909"
       ry="70.977776" /><path
       style="fill:#ffcc00;stroke-width:0.264583"
       d="m 34.236339,123.68921 -0.730654,-10.43791 1.14817,-11.06418 4.175164,-17.222547 5.532091,-12.316732 6.158365,-7.932812 5.323334,-4.488299 8.350327,-5.53209 11.586078,-4.801439 8.951401,-2.435199 6.716451,-1.476144 c 0,0 -5.461728,0.811879 -0.221422,-0.07381 5.240308,-0.885687 11.735336,-1.033301 11.735336,-1.033301 l 0.66427,0.07381 z"
       id="path12" /><path
       style="fill:#ffcc00;stroke-width:0.264583"
       d="m 134.54464,48.745031 11.3352,3.621146 3.39513,1.54995 2.62016,1.291627 1.84518,1.107107 5.42482,3.321322 2.65706,2.140408 6.27361,5.424826 3.02609,2.952284 3.76417,4.797467 1.88208,3.062997 2.36183,3.764163 2.84157,5.86767 2.0297,6.900968 0.81188,3.91178 0.88568,5.314114 0.0738,5.01889 -0.0369,5.86767 v 4.1701 l -0.70117,4.35462 -0.70117,4.24391 -1.25472,6.34742 -1.36543,4.02249 -2.76777,7.38072 -2.47254,5.31411 -2.95229,5.94148 -3.54274,6.67955 -8.56163,14.4662 -1.69756,5.68315 -1.32853,4.98198 -0.9964,4.50224 0.29523,7.2331 0.55355,5.60934 0.88569,4.90818 1.25472,5.83077 2.17731,10.18538 1.80828,6.45813 1.43924,5.79386 2.21421,8.19259 2.28802,7.86047 1.14401,4.57604 c 0,0 1.07021,-1.10711 -0.0369,0.25833 -1.10711,1.36543 -3.65345,1.18091 -3.65345,1.18091 l -91.668491,1.14401 c 0,0 0.627359,0.66426 -0.147616,-0.22142 -0.774975,-0.88569 -0.811877,-6.75335 -0.811877,-6.75335 l -0.848783,-12.80555 -2.029698,-16.79112 -0.405937,-3.32133"
       id="path13" /><path
       style="fill:#ffcc00;stroke-width:0.264583"
       d="m 33.962345,119.56624 -0.01304,4.94496 -0.01304,0.41751 -3.470606,5.41467 -7.215203,11.14247 -8.506895,14.22164 c 0,0 0.287043,-3.4967 -0.0261,0 -0.313137,3.4967 0.495801,5.5321 0.60018,5.66257 0.104379,0.13047 1.304738,1.85273 1.304738,1.85273 0,0 -4.279542,-2.0093 0.05219,0.0522 4.331732,2.06148 11.299037,3.88812 11.299037,3.88812 l 0.05219,2.79214 -1.774445,5.55819 c 0,0 0.05219,-2.0093 -0.05219,0.39142 -0.104379,2.40072 1.200361,4.56658 1.200361,4.56658 l 0.547989,0.86113 -0.260945,2.71386 0.05219,2.34852"
       id="path14" /><path
       style="fill:#ffcc00;stroke-width:0.264583"
       d="m 32.461895,134.44026 5.218954,-5.32334 4.905817,10.54229 z"
       id="path15" /><path
       style="fill:#ffcc00;stroke-width:0.264583"
       d="m 32.044378,134.2315 1.670066,-9.81164 2.191961,-3.65326 2.191959,11.69045 z"
       id="path16" /><path
       style="fill:#ffcc00;stroke-width:0.264583"
       d="m 33.088169,126.29869 0.835033,-3.75765 -0.208758,-6.05399 6.784638,10.22915 z"
       id="path17" /><path
       style="fill:#ffcc00;stroke-width:0.264583"
       d="m 32.917992,126.91141 0.738071,-1.25473 0.774975,1.58686 -1.402336,0.33213 z"
       id="path18" /><path
       style="fill:#ffcc00;stroke-width:0.264583"
       d="m 32.364439,133.73857 0.996397,0.22142 -0.369038,0.84878 -0.885685,0.14761 z"
       id="path19" /><path
       style="fill:#ffcc00;stroke-width:0.264583"
       d="m 30.445453,153.18675 18.119656,-1.95589 -10.960362,-18.19346 -8.008077,1.36543 -1.107107,9.74255 z"
       id="path20" /><path
       style="fill:#ffcc00;stroke-width:0.264583"
       d="M 28.821694,167.68986 72.035786,222.60238 89.454274,182.74652 46.055666,140.82405 25.389662,151.45228 Z"
       id="path21" /><path
       style="fill:#ffcc00;stroke-width:0.264583"
       d="m 27.769941,186.43688 c 1.180915,2.36183 4.170106,5.25876 4.170106,5.25876 l 1.25472,1.43924 -0.0369,7.10394 -0.221422,1.62375 -0.221422,1.75292 -0.0369,4.29927 2.011246,3.98559 1.476142,2.30647 1.826729,1.91899 2.490991,1.62375 1.845178,0.75653 2.380281,0.40593 9.428864,0.0923 4.85282,-0.46129 5.923024,-0.29523 1.974342,-0.0554 3.30287,2.43563 1.402337,1.99279 0.147613,2.25112 0.774976,5.20341 0.553553,4.07784 0.553553,4.72366 0.627362,7.71285 0.239874,4.26236 0.461295,5.20341 0.442841,5.12959 0.719622,0.81188 0.941041,-7.15929 18.974083,-98.68656 -67.637646,6.68027 0.104381,10.49009 -0.417518,8.29814 z"
       id="path22" /><path
       style="fill:#28220b;stroke-width:0.264583"
       d="m 27.503887,183.18529 0.991603,-1.46131 -1.14817,-1.14817 z"
       id="path23" /><path
       style="opacity:1;fill:#000000;fill-opacity:1;stroke-width:0.264583"
       d="m 65.356236,224.8166 -0.147613,-3.98559 -0.184518,-2.50944 1.918986,-0.18452 -0.29523,5.79386 -1.033299,1.14401 z"
       id="path77" /><path
       style="opacity:1;fill:#000000;fill-opacity:1;stroke-width:0.264583"
       d="m 62.219432,222.97142 -17.381585,-3.98559 21.994534,-0.84878 -4.760563,5.1296 -0.184518,-0.62736 z"
       id="path78" /><path
       style="opacity:1;fill:#000000;fill-opacity:1;stroke-width:0.264583"
       d="m 66.832381,218.10015 c 4.723657,2.76776 4.834369,4.79746 4.834369,4.79746 l 0.221419,2.62016 -5.683149,-6.31052 z"
       id="path76" /><path
       style="opacity:1;fill:#000000;fill-opacity:1;stroke-width:0.264583"
       d="m 33.244737,193.15349 0.156569,7.67186 c 0,0 1.409118,-11.84702 0,-0.31314 -1.409117,11.53389 7.149968,17.27474 7.149968,17.27474 0,0 -3.340132,-1.14817 0,0.0522 3.340129,1.20036 5.636469,1.09598 5.636469,1.09598 L 35.645457,221.0749 26.721046,204.583 Z"
       id="path81" /><path
       d="m 33.395894,200.55727 0.0052,0.2682 c 0,0 1.409118,-11.84704 0,-0.31316 -0.0018,0.0151 -0.0034,0.0299 -0.0052,0.045 z"
       style="opacity:1;stroke-width:0.264583"
       id="path83" /><path
       d="m 33.244482,193.15358 -6.523632,11.42928 8.924519,16.49202 10.542509,-2.13992 c 0,0 -2.296219,0.1043 -5.636348,-1.09606 -3.340132,-1.20037 0,-0.0522 0,-0.0522 0,0 -8.534661,-5.72459 -7.155636,-17.22583 z"
       style="opacity:1;stroke-width:0.264583"
       id="path82" /><path
       style="opacity:1;fill:#ffcc00;fill-opacity:1;stroke-width:0.264583"
       d="m 33.453496,198.78996 -0.05219,4.12298 1.513497,-9.0288 -1.409118,1.14817 z"
       id="path84" /><path
       d="m 34.914665,193.88429 -1.409217,1.14825 -0.05219,3.75739 -0.05219,4.12327 z"
       style="opacity:1;fill:#ffcc00;stroke-width:0.264583"
       id="path85" /><path
       d="m 34.914665,193.88429 -1.409217,1.14825 -0.05219,3.75739 -0.05219,4.12327 z"
       style="opacity:1;fill:#ffcc00;stroke-width:0.264583"
       id="path86" /><path
       d="m 34.914665,193.88429 -1.409217,1.14825 -0.05219,3.75739 -0.05219,4.12327 z"
       style="opacity:1;fill:#ffcc00;stroke-width:0.264583"
       id="path87" /><path
       style="display:inline;opacity:1;fill:#ffcc00;fill-opacity:1;stroke-width:0.264583"
       d="m 33.213219,193.07952 -1.328528,-1.54995"
       id="path88" /><path
       style="opacity:1;fill:#ffcc00;fill-opacity:1;stroke-width:0.264583"
       d="m 27.825297,182.82033 v 3.83797"
       id="path90" /><path
       style="opacity:1;fill:#ffcc00;fill-opacity:1;stroke-width:0.264583"
       d="m 27.825297,186.28926 c 0,0 2.730866,3.61655 0,0 z"
       id="path91" /><path
       style="opacity:1;fill:#ffcc00;fill-opacity:1;stroke-width:0.264583"
       d="m 27.825297,182.5989 c 0,0 3.321323,-3.91178 0,0 z"
       id="path92" /><path
       style="display:inline;opacity:1;fill:#ffcc00;fill-opacity:1;stroke-width:0.264583"
       d="m 27.825297,186.43688 -0.07381,-3.69036"
       id="path93" /><path
       style="opacity:1;fill:#ffcc00;fill-opacity:1;stroke-width:0.264583"
       id="path101"
       d="m 27.903117,182.53227 c -0.05239,0.22423 -0.09518,0.45034 -0.125677,0.67882 -0.03666,0.30379 -0.08905,0.60861 -0.09008,0.91472 0.0039,0.0656 0.0092,0.13114 0.01175,0.1968 0.003,0.0775 0.01064,0.15533 0.005,0.23271 -0.01791,0.24567 -0.07387,0.22297 -0.04605,0.48013 0.08044,0.33442 0.05373,0.17201 0.08571,0.48627 0.02545,0.22771 0.05054,0.46172 0.123536,0.68055 0.0335,0.10042 0.08211,0.184 0.130908,0.2774 0.100246,0.1531 0.216548,0.29427 0.320593,0.44469 0,0 0.427313,0.18615 0.427313,0.18615 v 0 c -0.104643,-0.15203 -0.220686,-0.29485 -0.330568,-0.44305 -0.02778,-0.0525 -0.113308,-0.2093 -0.134625,-0.26756 -0.07979,-0.21805 -0.110056,-0.45549 -0.144346,-0.68337 -0.05327,-0.45971 -0.01797,0.004 0.0013,-0.43647 0.01389,-0.31589 -0.09033,-0.61378 -0.01879,-0.93281 0.01519,-0.30792 -0.0024,-0.61799 0.06069,-0.92297 0.04271,-0.22563 0.07977,-0.45373 0.158078,-0.67046 z" /><path
       style="opacity:1;fill:#ffcc00;fill-opacity:1;stroke-width:0.264583"
       id="path106"
       d="m 28.768598,186.79763 c -0.09716,-0.18898 -0.08322,-0.40424 -0.08452,-0.6104 0.01553,-0.2311 -0.0083,-0.46068 -0.02921,-0.69048 -0.01146,-0.13367 -0.0065,-0.0672 -0.01492,-0.19929 0,0 -0.422907,-0.21205 -0.422907,-0.21205 v 0 c 0.0088,0.13323 0.004,0.0663 0.01439,0.20087 0.02498,0.2292 0.05449,0.45822 0.03814,0.68938 -0.0042,0.20768 -0.01577,0.42128 0.05326,0.62029 z" /><path
       style="opacity:1;fill:#ffcc00;fill-opacity:1;stroke-width:0.264583"
       id="path107"
       d="m 29.137633,187.60951 c -0.122047,-0.23436 -0.214598,-0.48021 -0.293592,-0.73203 -0.140999,-0.39708 -0.243292,-0.80597 -0.312806,-1.2212 -0.04798,-0.33339 -0.05881,-0.67058 -0.06109,-1.00694 -0.0033,-0.24069 -0.0049,-0.4814 -0.0035,-0.72211 0,0 -0.400793,-0.20432 -0.400793,-0.20432 v 0 c 5.29e-4,0.23988 -0.0029,0.47973 -0.0029,0.71962 0.0063,0.34019 0.01087,0.68121 0.06726,1.0178 0.07044,0.41516 0.177704,0.82336 0.305689,1.22436 0.04783,0.15762 0.09455,0.31525 0.152805,0.46942 0.01365,0.0361 0.02854,0.0718 0.04281,0.1077 0.01365,0.0263 0.02961,0.0515 0.04093,0.0789 0.0089,0.0215 0.01291,0.0447 0.01939,0.0671 z" /><path
       style="opacity:1;fill:#ffcc00;fill-opacity:1;stroke-width:0.264583"
       id="path109"
       d="m 27.975856,182.5229 c -0.01437,0.28031 -0.03384,0.56031 -0.04295,0.84101 -0.0016,0.30259 -0.03047,0.61038 0.008,0.91206 0.01103,0.0864 0.03051,0.17151 0.04577,0.25726 0.101243,0.61634 0.418687,1.14914 0.72236,1.68305 0.100277,0.18315 0.214482,0.35641 0.337884,0.52441 0,0 0.41357,0.17789 0.41357,0.17789 v 0 c -0.132863,-0.16875 -0.256,-0.34345 -0.363673,-0.52978 -0.310893,-0.52404 -0.634582,-1.05089 -0.72327,-1.66579 -0.04858,-0.3831 -0.06188,-0.7664 -0.03867,-1.15228 0.01281,-0.27585 0.02445,-0.55359 0.07791,-0.82519 z" /><path
       style="opacity:1;fill:#ffcc00;fill-opacity:1;stroke-width:0.264583"
       id="path114"
       d="m 28.339005,186.55301 c -0.01519,-0.0412 -0.02294,-0.0843 -0.03056,-0.12739 -0.01106,-0.0585 7.94e-4,-0.11532 0.02302,-0.16944 0.01532,-0.0368 0.02662,-0.0757 0.02927,-0.11554 -5.29e-4,-0.007 -7.94e-4,-0.0149 -0.0013,-0.0223 -0.0016,-0.0248 -0.0026,-0.0486 0.0013,-0.0733 0.0011,-0.007 0.003,-0.0141 0.0046,-0.0212 0.0011,-0.007 0.0021,-0.0148 0.0031,-0.0221 0.0032,-0.0318 0.01487,-0.0622 0.02625,-0.0918 0,0 -0.407043,-0.22097 -0.407043,-0.22097 v 0 c -0.0039,0.0238 -0.0016,0.0116 -0.007,0.0365 -0.0037,0.0222 -0.0044,0.045 -0.01212,0.0665 -0.0031,0.0317 -0.004,0.0638 -0.0093,0.0954 -0.0013,0.008 -0.0036,0.015 -0.005,0.0225 -0.0011,0.006 -0.0019,0.0123 -0.0029,0.0185 -0.003,0.0383 -0.0032,0.077 -0.01183,0.11473 -0.003,0.0185 -0.0078,0.0367 -0.01003,0.0554 -0.0013,0.0103 -7.94e-4,0.0207 -0.0016,0.0311 -0.0024,0.0333 -0.0074,0.0663 -0.0088,0.0997 -0.0058,0.0489 -0.0011,0.007 -0.0057,0.0512 -0.0016,0.014 -0.0024,0.0302 -0.0078,0.0436 -7.94e-4,0.002 -0.0024,0.004 -0.0038,0.006 z" /><path
       style="opacity:1;fill:#ffcc00;fill-opacity:1;stroke-width:0.264583"
       id="path115"
       d="m 28.387336,186.55176 c -0.02334,-0.0274 -0.04169,-0.0591 -0.06041,-0.0899 -0.01471,-0.0316 -0.03328,-0.0618 -0.05334,-0.0903 -0.01564,-0.0249 -0.03207,-0.0493 -0.04655,-0.0749 -0.0054,-0.0165 -0.01328,-0.0328 -0.01654,-0.0499 -0.0048,-0.0255 0.0027,0.001 -0.0048,-0.0229 -0.0048,-0.014 -0.0039,-0.0299 -0.01109,-0.0432 -0.0027,-0.005 -0.0076,-0.009 -0.01119,-0.0132 -0.0034,-0.0159 -0.0168,-0.0261 -0.02405,-0.0397 -0.0026,-0.005 -0.0043,-0.01 -0.0065,-0.0149 -0.0079,-0.0206 -0.01892,-0.0402 -0.02567,-0.0613 -0.0035,-0.0108 -0.0059,-0.0247 -0.0081,-0.0359 -0.0081,-0.0283 -0.0096,-0.0581 -0.01238,-0.0873 -0.0016,-0.0141 -0.0035,-0.0279 -0.0041,-0.0421 0,0 -0.424765,-0.2142 -0.424765,-0.2142 v 0 c 7.94e-4,0.0162 2.04e-4,0.0326 0.0035,0.0484 0.0073,0.0322 0.01971,0.063 0.02228,0.0962 0.0021,0.007 0.0089,0.0292 0.01016,0.0364 0.0036,0.0207 0.0026,0.0425 0.01201,0.062 0.0011,0.003 0.0027,0.007 0.0034,0.0102 0.0019,0.01 -5.3e-4,0.014 0.0029,0.0233 0.0024,0.006 0.01,0.0164 0.01437,0.0216 0.0011,0.003 0.005,0.0167 0.0075,0.0197 0.0019,0.002 0.0054,0.003 0.0076,0.005 0.0024,0.002 0.0036,0.005 0.0058,0.008 0.0109,0.0118 0.0055,-8e-4 0.0099,0.0182 0.0118,0.0435 -0.0062,-0.0195 0.009,0.0228 0.0034,0.009 0.0039,0.0196 0.0069,0.0291 0.0016,0.005 0.0039,0.009 0.0055,0.0136 0.0019,0.005 0.0032,0.0107 0.0048,0.016 0.01013,0.0312 0.02656,0.0589 0.04591,0.0853 0.0065,0.009 0.01394,0.0174 0.02029,0.0265 0.0132,0.0191 0.02228,0.0411 0.03856,0.0581 0.0064,0.0169 0.01437,0.0322 0.02267,0.0482 0.0021,0.004 0.0043,0.009 0.0066,0.0127 0.0019,0.003 0.0046,0.006 0.0054,0.01 5.29e-4,0.002 -0.0011,0.005 -0.0016,0.007 z" /><path
       style="opacity:1;fill:#ffcc00;fill-opacity:1;stroke-width:0.264583"
       id="path117"
       d="m 28.058168,182.82478 c -0.06743,0.10631 -0.09243,0.23158 -0.152122,0.34108 -0.06646,0.10116 -0.130858,0.20011 -0.168146,0.31595 -0.02468,0.16034 -0.0577,0.31923 -0.08398,0.47931 -0.02413,0.25649 -0.03367,0.51389 -0.03421,0.7714 -0.0063,0.33221 0.05842,0.66122 0.143451,0.98083 0.07185,0.25398 0.11882,0.5147 0.210257,0.76262 0.02921,0.0716 0.04947,0.14602 0.06828,0.22083 0,0 0.426252,0.20394 0.426252,0.20394 v 0 c -0.02016,-0.0779 -0.04192,-0.15539 -0.07307,-0.22986 -0.106677,-0.24755 -0.173286,-0.5093 -0.239033,-0.77034 -0.08637,-0.31411 -0.153598,-0.63713 -0.138858,-0.96486 0.0069,-0.25265 0.007,-0.50691 0.04644,-0.75715 0.02744,-0.15638 0.06463,-0.31066 0.09508,-0.46644 0.033,-0.11431 0.09585,-0.21049 0.158766,-0.31049 0.05701,-0.10756 0.084,-0.23087 0.16057,-0.32776 z" /><path
       style="opacity:1;fill:#ffcc00;fill-opacity:1;stroke-width:0.264583"
       id="path118"
       d="m 27.950004,182.82223 c -0.09231,0.11859 -0.158864,0.25214 -0.211784,0.39201 -0.05664,0.17766 -0.117191,0.35422 -0.148545,0.53836 -0.03409,0.22149 -0.02641,0.44656 -0.02479,0.66986 0.01241,0.27147 -0.01765,0.54438 0.0092,0.81484 0.0337,0.25472 0.12323,0.49519 0.207941,0.73609 0.07989,0.26804 0.153784,0.53799 0.267986,0.7938 0.0749,0.18345 0.176842,0.35154 0.288891,0.51408 0.01386,0.021 0.02773,0.042 0.04159,0.063 0,0 0.430872,0.1886 0.430872,0.1886 v 0 c -0.01461,-0.0219 -0.02922,-0.0437 -0.04384,-0.0656 -0.117906,-0.16166 -0.226004,-0.32881 -0.306136,-0.51304 -0.126325,-0.25019 -0.199699,-0.52159 -0.275066,-0.79059 -0.07111,-0.24112 -0.176469,-0.47296 -0.20678,-0.72505 -0.02915,-0.26971 -0.01624,-0.54214 -0.01651,-0.813 0.0046,-0.21865 0.0082,-0.43813 0.03652,-0.65526 0.03215,-0.18165 0.08594,-0.35565 0.146264,-0.52964 0.0499,-0.13316 0.117973,-0.26244 0.218959,-0.36436 z" /><path
       style="opacity:1;fill:#ffcc00;fill-opacity:1;stroke-width:0.264583"
       id="path119"
       d="m 28.374747,182.36711 c -0.06412,0.14672 -0.165182,0.27048 -0.253886,0.40197 -0.132212,0.17516 -0.224031,0.36998 -0.285369,0.5797 -0.0516,0.29832 -0.05198,0.60261 -0.05935,0.90447 -0.01995,0.3002 0.01527,0.59294 0.08031,0.88525 0.09426,0.29654 0.172985,0.5976 0.262316,0.89555 0.06513,0.20886 0.122296,0.41987 0.180793,0.63061 0,0 0.416451,0.19655 0.416451,0.19655 v 0 c -0.07311,-0.21122 -0.132077,-0.42747 -0.2017,-0.63995 -0.08881,-0.29526 -0.162954,-0.59502 -0.25572,-0.88938 -0.0711,-0.28883 -0.110109,-0.57904 -0.08901,-0.87743 0.0016,-0.29619 0.003,-0.59604 0.06757,-0.88653 0.05893,-0.20498 0.147916,-0.39804 0.285644,-0.56298 0.09108,-0.13445 0.188781,-0.26404 0.277236,-0.40035 z" /><circle
       id="path120"
       style="fill:#ffcc00;stroke:#000000;stroke-width:0.264583"
       cx="28.495491"
       cy="186.73418"
       r="0.0017379116" /><path
       style="opacity:1;fill:#ffcc00;fill-opacity:1;stroke-width:0.264583"
       id="path121"
       d="m 28.061655,182.35856 c -0.07674,0.13339 -0.152363,0.26793 -0.228716,0.4018 -0.100322,0.17067 -0.158107,0.3636 -0.211339,0.55323 -0.06924,0.22579 -0.117671,0.45363 -0.142486,0.68825 -0.024,0.33888 0.04617,0.67524 0.137388,0.99965 0.118469,0.39131 0.246483,0.7792 0.359843,1.17217 0.0182,0.0642 0.03643,0.12847 0.05464,0.1927 0.01976,0.0621 0.0411,0.12363 0.05929,0.18615 0.01625,0.0558 0.02344,0.11432 0.04395,0.16869 0.02222,0.059 0.05573,0.11305 0.08359,0.16958 0,0 0.3937,0.18211 0.3937,0.18211 v 0 c -0.01474,-0.0502 -0.02471,-0.10206 -0.04425,-0.15058 -0.02619,-0.065 -0.06583,-0.12409 -0.09254,-0.18892 -0.03458,-0.0839 -0.09352,-0.29396 -0.118558,-0.37948 -0.113448,-0.39101 -0.237823,-0.7786 -0.35371,-1.16887 -0.08831,-0.3164 -0.157417,-0.64234 -0.120627,-0.97268 0.024,-0.23146 0.07194,-0.45765 0.137555,-0.68102 0.06059,-0.18318 0.121618,-0.36919 0.217064,-0.53762 0.08033,-0.13305 0.147844,-0.27462 0.250391,-0.39307 z" /><path
       style="opacity:1;fill:#ffcc00;fill-opacity:1;stroke-width:0.264583"
       id="path122"
       d="m 27.809444,183.63441 c 0.01834,0.24102 0.01908,0.48353 0.01659,0.72519 -0.0068,0.35816 0.04472,0.71213 0.122611,1.06066 0.06099,0.3494 0.240855,0.65504 0.40849,0.96148 0.02093,0.0364 0.04184,0.0727 0.06276,0.10912 0,0 0.411916,0.18223 0.411916,0.18223 v 0 c -0.02384,-0.0371 -0.04767,-0.0742 -0.07151,-0.11128 -0.175556,-0.30488 -0.36004,-0.60925 -0.432522,-0.95879 -0.07692,-0.34226 -0.116158,-0.68846 -0.102259,-1.03987 -0.0024,-0.236 -0.0024,-0.473 0.01659,-0.70828 z" /><path
       style="opacity:1;fill:#ffcc00;fill-opacity:1;stroke-width:0.264583"
       id="path123"
       d="m 27.499442,184.0495 c 0.04007,0.24932 0.09871,0.49505 0.151164,0.74223 0.08453,0.38616 0.178523,0.76672 0.340561,1.12823 0.07068,0.16027 0.161875,0.30989 0.250627,0.46042 0,0 0.398677,0.17676 0.398677,0.17676 v 0 c -0.09146,-0.15068 -0.188974,-0.29844 -0.261001,-0.45991 -0.168018,-0.35844 -0.265544,-0.73022 -0.342252,-1.11784 -0.04259,-0.23716 -0.09446,-0.47536 -0.09888,-0.71707 z" /><path
       style="opacity:1;fill:#ffcc00;fill-opacity:1;stroke-width:0.264583"
       id="path124"
       d="m 27.546358,184.35149 c 0.0083,0.13984 0.0035,0.27838 0.02381,0.41725 0.03403,0.23533 0.0995,0.46345 0.178978,0.6869 0.07816,0.20074 0.185481,0.38533 0.297796,0.5682 0.06659,0.10888 0.135393,0.21554 0.209058,0.31974 0.02413,0.0341 0.08752,0.0633 0.07255,0.10233 -0.01434,0.0374 -0.126957,-0.0208 -0.118837,0.0184 0.01365,0.066 0.100346,0.0899 0.150519,0.13478 0,0 0.578366,0.25933 0.578366,0.25933 v 0 c 0.01651,-0.0171 0.06485,-0.0331 0.04955,-0.0513 -0.06549,-0.0779 -0.169341,-0.1141 -0.245409,-0.18174 -0.03175,-0.0282 -0.05008,-0.0687 -0.07494,-0.10313 -0.07294,-0.1011 -0.139441,-0.20526 -0.20192,-0.31319 -0.110582,-0.18184 -0.22071,-0.36297 -0.302104,-0.56043 -0.08418,-0.21804 -0.15449,-0.44179 -0.179276,-0.67539 -0.01413,-0.1324 -0.0099,-0.26629 -0.0011,-0.39916 z" /><path
       style="opacity:1;fill:#ffcc00;fill-opacity:1;stroke-width:0.264583"
       id="path125"
       d="m 27.445694,184.35694 c 0.0381,0.18803 0.06364,0.3789 0.09745,0.56819 0.04225,0.28184 0.118753,0.55962 0.210884,0.82907 0.07817,0.22004 0.177099,0.43155 0.287189,0.63722 0.01479,0.026 0.0296,0.052 0.0444,0.078 0,0 0.425251,0.18899 0.425251,0.18899 v 0 c -0.01561,-0.0258 -0.03121,-0.0517 -0.04682,-0.0775 -0.115303,-0.20831 -0.226195,-0.41817 -0.312203,-0.64061 -0.08567,-0.23999 -0.02567,-0.0526 -0.08578,-0.29681 -0.04254,-0.17278 -0.105066,-0.34171 -0.118679,-0.5206 -0.02725,-0.18409 -0.05596,-0.36773 -0.05968,-0.55424 z" /><path
       style="opacity:1;fill:#ffcc00;fill-opacity:1;stroke-width:0.264583"
       id="path126"
       d="m 28.292737,186.24099 c -0.02225,-0.11753 -0.04764,-0.22993 -0.09145,-0.34161 -0.04008,-0.0964 -0.0544,-0.19894 -0.06216,-0.30213 -0.0077,-0.12578 -0.0076,-0.25196 -0.007,-0.37794 0.0064,-0.13617 -0.02529,-0.26904 -0.05738,-0.4002 -0.0118,-0.0684 -0.03827,-0.13298 -0.06121,-0.1981 0,0 -0.426736,-0.19976 -0.426736,-0.19976 v 0 c 0.02167,0.0633 0.0467,0.12601 0.05824,0.19218 0.03363,0.12832 0.07218,0.25569 0.06415,0.39029 1.69e-4,0.12614 -0.0019,0.25227 7.94e-4,0.3784 0.0063,0.10759 0.0176,0.21535 0.0576,0.3165 0.0209,0.052 0.05309,0.1075 0.06597,0.16204 0.01286,0.0544 0.0076,0.11356 0.01728,0.16859 z" /><path
       style="opacity:1;fill:#ffcc00;fill-opacity:1;stroke-width:0.264583"
       id="path127"
       d="m 27.546358,184.2993 c 0.01871,0.22802 0.01955,0.45726 0.02267,0.68593 0.01455,0.37218 0.12954,0.72827 0.263644,1.0724 0.11032,0.221 0.0532,0.11398 0.170754,0.3214 0,0 0.394824,0.17557 0.394824,0.17557 v 0 c -0.12383,-0.20633 -0.06367,-0.1002 -0.180012,-0.31865 -0.05652,-0.13779 -0.09746,-0.22759 -0.139647,-0.37121 -0.0648,-0.22065 -0.100033,-0.45121 -0.117935,-0.67996 0.003,-0.22096 0.0034,-0.44259 0.02267,-0.66284 z" /><path
       style="opacity:1;fill:#ffcc00;fill-opacity:1;stroke-width:0.264583"
       id="path128"
       d="m 27.497884,184.61788 c 0.0813,0.2389 0.197966,0.46246 0.30712,0.68924 0.160703,0.30357 0.365416,0.5796 0.549942,0.86833 0,0 0.397946,0.17476 0.397946,0.17476 v 0 c -0.186483,-0.28466 -0.383447,-0.5632 -0.54846,-0.8612 -0.09855,-0.21498 -0.216617,-0.42616 -0.264538,-0.65938 z" /><path
       style="opacity:1;fill:#ffcc00;fill-opacity:1;stroke-width:0.264583"
       id="path129"
       d="m 27.495238,184.61922 c 0.01646,0.19837 0.0438,0.39571 0.06824,0.59322 0.03559,0.18471 0.05126,0.377 0.10945,0.55687 0.0438,0.13539 0.0852,0.21372 0.145254,0.34254 0.07314,0.13893 0.155294,0.27269 0.23328,0.40888 0,0 0.406459,0.1805 0.406459,0.1805 v 0 c -0.08331,-0.13715 -0.168064,-0.27341 -0.2495,-0.41169 -0.02617,-0.0551 -0.05537,-0.10894 -0.07851,-0.16541 -0.09282,-0.22654 -0.125751,-0.4718 -0.16274,-0.71189 -0.02088,-0.18931 -0.044,-0.38102 -0.03712,-0.57147 z" /><path
       style="opacity:1;fill:#ffcc00;fill-opacity:1;stroke-width:0.264583"
       id="path130"
       d="m 27.548496,184.46944 c 0.0019,0.20739 0.05677,0.40868 0.100234,0.6102 0.116949,0.37626 0.229135,0.75515 0.369377,1.1235 0.108998,0.29028 0.280477,0.55001 0.4293,0.82035 0,0 0.406741,0.18109 0.406741,0.18109 v 0 c -0.163555,-0.27111 -0.345202,-0.53365 -0.464637,-0.8286 -0.131882,-0.36154 -0.230997,-0.73424 -0.340617,-1.10303 -0.04093,-0.19034 -0.08038,-0.38796 -0.06772,-0.58305 z" /><path
       style="opacity:1;fill:#ffcc00;fill-opacity:1;stroke-width:0.264583"
       id="path131"
       d="m 27.550073,184.51351 c 0.04619,0.18764 0.147804,0.35334 0.22752,0.52764 0.140631,0.30751 0.255969,0.62618 0.363101,0.9467 0.06986,0.17538 0.151842,0.34542 0.228894,0.51764 0,0 0.412512,0.188 0.412512,0.188 v 0 c -0.0836,-0.17266 -0.17181,-0.34326 -0.24579,-0.5204 -0.113605,-0.31741 -0.220245,-0.63793 -0.356302,-0.94669 -0.01733,-0.0452 -0.03343,-0.0909 -0.05202,-0.13562 -0.04968,-0.11945 -0.126738,-0.23328 -0.135903,-0.36553 z" /><path
       style="opacity:1;fill:#ffcc00;fill-opacity:1;stroke-width:0.264583"
       id="path132"
       d="m 27.757252,184.46944 c 0.01135,0.25406 0.01916,0.50704 0.05075,0.75964 0.05619,0.39415 0.198279,0.76727 0.361016,1.12814 0.157017,0.3377 0.374933,0.64112 0.572873,0.95513 0,0 0.393721,0.17345 0.393721,0.17345 v 0 c -0.198382,-0.31425 -0.416785,-0.61761 -0.580382,-0.95218 -0.164047,-0.35571 -0.310163,-0.72231 -0.361362,-1.11359 -0.02667,-0.24315 -0.02371,-0.4863 -0.0039,-0.73013 z" /><path
       style="opacity:1;fill:#ffcc00;fill-opacity:1;stroke-width:0.264583"
       id="path133"
       d="m 27.756186,184.41046 c 0.0083,0.17531 0.01384,0.35083 0.01622,0.52633 -0.0088,0.4063 0.09436,0.79881 0.205822,1.18578 0.120898,0.40503 0.348284,0.76566 0.572717,1.11996 0.02524,0.0417 0.05049,0.0833 0.07573,0.12497 0,0 0.404693,0.17834 0.404693,0.17834 v 0 c -0.02812,-0.0432 -0.05624,-0.0863 -0.08436,-0.12951 -0.234929,-0.35108 -0.472631,-0.70706 -0.594569,-1.11617 -0.10967,-0.37758 -0.212503,-0.76091 -0.177634,-1.15834 0.0024,-0.16999 0.0078,-0.34002 0.01622,-0.5098 z" /><circle
       id="path134"
       style="fill:#ffcc00;stroke:#000000;stroke-width:0.264583"
       cx="27.347319"
       cy="184.54222"
       r="0.0017379116" /><path
       style="opacity:1;fill:#ffcc00;fill-opacity:1;stroke-width:0.264583"
       id="path135"
       d="m 27.598547,184.35149 c 0.03032,0.23003 0.01807,0.46565 0.06778,0.69317 0.01408,0.0644 0.03559,0.12696 0.05338,0.19044 0.104645,0.38272 0.328329,0.70356 0.558255,1.01958 0.13889,0.20988 0.301895,0.40402 0.398409,0.63828 0,0 0.418587,0.19207 0.418587,0.19207 v 0 c -0.110559,-0.24239 -0.283138,-0.44182 -0.429419,-0.6628 -0.228742,-0.31028 -0.451342,-0.63004 -0.561702,-1.00443 -0.01712,-0.0612 -0.03791,-0.12158 -0.05139,-0.18373 -0.04688,-0.21614 -0.03962,-0.44152 -0.01693,-0.65994 z" /><path
       style="opacity:1;fill:#ffcc00;fill-opacity:1;stroke-width:0.264583"
       id="path136"
       d="m 27.494169,184.61244 c 0.08756,0.29513 0.165491,0.59222 0.267941,0.88265 0.139787,0.38366 0.342405,0.73969 0.571013,1.07656 0.156662,0.23162 0.329062,0.45158 0.488767,0.68101 0,0 0.382014,0.16644 0.382014,0.16644 v 0 c -0.15616,-0.22882 -0.325975,-0.44747 -0.480698,-0.67731 -0.23028,-0.33447 -0.442465,-0.68472 -0.580991,-1.06828 -0.08731,-0.27503 -0.16452,-0.5533 -0.211092,-0.83843 z" /><path
       style="opacity:1;fill:#000000;fill-opacity:1;stroke-width:0.264583"
       d="m 14.766044,162.19123 1.840566,1.0333 0.06919,0.0692 -2.002019,-0.80265 0.0046,-0.26294 z"
       id="path138" /><path
       style="opacity:1;fill:#000000;fill-opacity:1;stroke-width:0.264583"
       d="m 16.560481,163.56589 0.09226,-0.27678 -0.05536,-0.11071 -0.216808,-0.1061 z"
       id="path139" /><path
       style="opacity:1;fill:#000000;fill-opacity:1;stroke-width:0.264583"
       d="m 14.715302,155.75616 0.09226,-0.16145 0.198356,-1.63298 -0.258324,-0.0231 -0.101485,1.76675 z"
       id="path140" /></g><g
     id="layer5"
     style="display:inline"
     inkscape:label="Cérebro 2"><ellipse
       style="fill:#ffffff;stroke-width:0.264583"
       id="path48"
       cx="72.647842"
       cy="75.570457"
       rx="14.195555"
       ry="14.613071" /><ellipse
       style="fill:#ffffff;stroke-width:0.264583"
       id="path46"
       cx="117.32208"
       cy="138.40666"
       rx="8.3503265"
       ry="4.8014379" /><ellipse
       style="fill:#ffffff;stroke-width:0.264583"
       id="path43"
       cx="130.05634"
       cy="138.40666"
       rx="13.151764"
       ry="6.8890195" /><ellipse
       style="fill:#ffffff;stroke-width:0.264583"
       id="path42"
       cx="69.933983"
       cy="111.05935"
       rx="19.414509"
       ry="20.040785" /><ellipse
       style="fill:#ffffff;stroke-width:0.264583"
       id="path41"
       cx="101.45647"
       cy="131.51764"
       rx="22.963398"
       ry="14.613071" /><ellipse
       style="fill:#ffffff;stroke-width:0.264583"
       id="path47"
       cx="68.472679"
       cy="102.70901"
       rx="26.303528"
       ry="24.215948" /><ellipse
       style="fill:#ffffff;stroke-width:0.182624"
       id="path49"
       cx="110.85058"
       cy="68.263924"
       rx="30.687447"
       ry="18.99699" /><ellipse
       style="fill:#ffffff;stroke-width:0.264583"
       id="path44"
       cx="158.92418"
       cy="135.90157"
       rx="16.551113"
       ry="10.22915" /><ellipse
       style="fill:#ffffff;stroke-width:0.264583"
       id="path50"
       cx="145.29568"
       cy="71.604042"
       rx="9.6028757"
       ry="8.9766006" /><ellipse
       style="fill:#ffffff;stroke-width:0.264583"
       id="path55"
       cx="170.97293"
       cy="129.63881"
       rx="7.724052"
       ry="10.646667" /><circle
       style="fill:#ffffff;stroke-width:0.264583"
       id="path45"
       cx="63.044964"
       cy="109.8068"
       r="20.4583" /><ellipse
       style="fill:#ffffff;stroke-width:0.264583"
       id="path51"
       cx="155.94235"
       cy="79.119347"
       rx="10.22915"
       ry="8.9766006" /><ellipse
       style="fill:#ffffff;stroke-width:0.264583"
       id="path52"
       cx="166.79778"
       cy="94.984962"
       rx="11.064182"
       ry="12.316731" /></g><g
     id="layer3"
     style="display:inline"
     inkscape:label="Cérebro"><ellipse
       style="fill:#000000;stroke-width:0.264583"
       id="path24"
       cx="92.062347"
       cy="95.402473"
       rx="26.512287"
       ry="21.919607" /><ellipse
       style="fill:#000000;stroke-width:0.264583"
       id="path39"
       cx="142.99934"
       cy="73.48288"
       rx="10.646667"
       ry="9.6028757" /><ellipse
       style="fill:#000000;stroke-width:0.264583"
       id="path25"
       cx="106.04915"
       cy="123.16732"
       rx="26.721045"
       ry="20.4583" /><ellipse
       style="fill:#000000;stroke-width:0.264583"
       id="path26"
       cx="129.01254"
       cy="107.3017"
       rx="32.566273"
       ry="25.886013" /><ellipse
       style="fill:#000000;stroke-width:0.264583"
       id="path27"
       cx="110.64182"
       cy="64.715027"
       rx="27.973593"
       ry="11.690457" /><ellipse
       style="fill:#ffffff;stroke-width:0.234766"
       id="path53"
       cx="138.46475"
       cy="-196.44385"
       rx="7.2394576"
       ry="10.246669"
       transform="matrix(0.84262418,-0.53850207,-0.30829134,-0.95129199,0,0)" /><ellipse
       style="fill:#000000;stroke-width:0.264583"
       id="path28"
       cx="85.590851"
       cy="80.789406"
       rx="12.107974"
       ry="14.404313" /><ellipse
       style="fill:#000000;stroke-width:0.264583"
       id="path29"
       cx="132.35268"
       cy="84.964569"
       rx="26.303528"
       ry="14.821829" /><ellipse
       style="fill:#000000;stroke-width:0.264583"
       id="path30"
       cx="109.38927"
       cy="75.152939"
       rx="15.448104"
       ry="9.6028757" /><ellipse
       style="fill:#000000;stroke-width:0.264583"
       id="path31"
       cx="158.6562"
       cy="129.63881"
       rx="18.37072"
       ry="13.986796" /><ellipse
       style="fill:#000000;stroke-width:0.264583"
       id="path32"
       cx="163.45764"
       cy="112.10313"
       rx="19.832026"
       ry="11.481699" /><ellipse
       style="fill:#000000;stroke-width:0.264583"
       id="path33"
       cx="161.1613"
       cy="94.984962"
       rx="15.030588"
       ry="11.899215" /><ellipse
       style="fill:#000000;stroke-width:0.264583"
       id="path34"
       cx="145.92195"
       cy="81.624443"
       rx="18.579475"
       ry="11.899215" /><ellipse
       style="fill:#000000;stroke-width:0.264583"
       id="path35"
       cx="75.361694"
       cy="79.745613"
       rx="15.239346"
       ry="17.11817" /><ellipse
       style="fill:#000000;stroke-width:0.264583"
       id="path36"
       cx="127.34248"
       cy="131.51764"
       rx="14.613071"
       ry="12.107974" /><ellipse
       style="fill:#000000;stroke-width:0.264583"
       id="path37"
       cx="74.735428"
       cy="109.18052"
       rx="16.283136"
       ry="15.239346" /><ellipse
       style="fill:#000000;stroke-width:0.264583"
       id="path38"
       cx="70.351501"
       cy="103.96156"
       rx="26.09477"
       ry="24.633463" /></g><g
     id="layer4"
     transform="translate(-2.2081784,-1.472119)"
     style="display:inline"
     inkscape:label="texto"><g
       id="g1"
       style="display:inline"
       transform="matrix(0.98557395,0.02131772,-0.0196838,0.89445371,-3.895295,5.8978561)"><text
         xml:space="preserve"
         style="font-style:normal;font-variant:normal;font-weight:normal;font-stretch:normal;font-size:49.1981px;font-family:'Swis721 Blk BT';-inkscape-font-specification:'Swis721 Blk BT';text-align:start;writing-mode:lr-tb;direction:ltr;text-anchor:start;fill:#d4aa00;stroke-width:0.249988"
         x="82.612091"
         y="100.40437"
         id="text55"
         transform="matrix(0.8943196,0.0859214,-0.05437835,1.1129441,0,0)"
         inkscape:transform-center-x="1.2260375"
         inkscape:transform-center-y="0.51765316"><tspan
           id="tspan55"
           style="font-style:normal;font-variant:normal;font-weight:normal;font-stretch:normal;font-size:49.1981px;font-family:'Swis721 Blk BT';-inkscape-font-specification:'Swis721 Blk BT';fill:#d4aa00;stroke-width:0.249988"
           x="82.612091"
           y="100.40437">GHS</tspan></text><text
         xml:space="preserve"
         style="font-style:normal;font-variant:normal;font-weight:normal;font-stretch:normal;font-size:48.6044px;font-family:'Swis721 Blk BT';-inkscape-font-specification:'Swis721 Blk BT';text-align:start;writing-mode:lr-tb;direction:ltr;text-anchor:start;display:inline;fill:#ffffff;stroke-width:0.251878"
         x="82.570518"
         y="102.65959"
         id="text40"
         transform="matrix(0.90387414,0.08978095,-0.0573599,1.1006512,0,0)"><tspan
           id="tspan40"
           style="font-style:normal;font-variant:normal;font-weight:normal;font-stretch:normal;font-size:48.6044px;font-family:'Swis721 Blk BT';-inkscape-font-specification:'Swis721 Blk BT';stroke-width:0.251878"
           x="82.570518"
           y="102.65959">GHS</tspan></text></g><text
       xml:space="preserve"
       style="display:inline;font-style:italic;font-variant:normal;font-weight:normal;font-stretch:normal;font-size:6.35px;font-family:Sans;-inkscape-font-specification:'Sans Italic';text-align:start;writing-mode:lr-tb;direction:ltr;text-anchor:start;fill:#ffffff;stroke-width:0.264583"
       x="89.348495"
       y="272.63812"
       id="text41"><tspan
         id="tspan41"
         style="font-style:italic;font-variant:normal;font-weight:normal;font-stretch:normal;font-size:6.35px;font-family:Sans;-inkscape-font-specification:'Sans Italic';stroke-width:0.264583"
         x="89.348495"
         y="272.63812">golden head softwares</tspan></text><path
       style="display:inline;fill:#ffffff;stroke-width:0.264583"
       d="m 89.348494,275.66516 64.193136,-0.52191 v 1.04381 l -64.401895,0.20875 z"
       id="path58" /></g></svg>
